<svg width="108" height="22" fill="none" xmlns="http://www.w3.org/2000/svg"><path d="M29.312 4.72h3.952c1.824 0 3.237.49 4.24 1.472 1.003.981 1.504 2.368 1.504 4.16 0 1.792-.501 3.184-1.504 4.176-1.003.981-2.416 1.472-4.24 1.472h-3.952V4.72Zm3.856 9.904c2.773 0 4.16-1.424 4.16-4.272 0-2.837-1.387-4.256-4.16-4.256H30.96v8.528h2.208ZM44.322 8c1.045 0 1.818.261 2.32.784.511.523.767 1.317.767 2.384V16h-1.551v-1.296a2.27 2.27 0 0 1-.912 1.056c-.395.235-.86.352-1.392.352a3.24 3.24 0 0 1-1.409-.304 2.533 2.533 0 0 1-1.008-.88 2.297 2.297 0 0 1-.352-1.248c0-.565.145-1.008.433-1.328.298-.33.783-.565 1.455-.704.683-.139 1.616-.208 2.8-.208h.369v-.464c0-.597-.128-1.03-.384-1.296-.246-.267-.651-.4-1.216-.4-.886 0-1.771.272-2.656.816l-.48-1.136c.416-.288.917-.517 1.503-.688A5.892 5.892 0 0 1 44.322 8Zm-.48 6.912c.586 0 1.066-.197 1.44-.592.373-.405.56-.923.56-1.552v-.416h-.288c-.833 0-1.473.037-1.92.112-.449.075-.769.203-.96.384-.193.17-.288.421-.288.752 0 .373.133.688.4.944.277.245.629.368 1.056.368Zm10.53-5.552-.976.096c-.768.075-1.323.31-1.664.704-.33.395-.496.896-.496 1.504V16H49.62V8.192h1.568v1.36c.416-.917 1.264-1.424 2.544-1.52L54.26 8l.112 1.36ZM62.839 16h-2.048l-3.696-3.68V16H55.48V4.72h1.616v6.992l3.424-3.504h2l-3.696 3.744L62.84 16ZM77.66 4.72h1.313V16h-1.488l.016-8.16-3.36 6.352h-1.12L69.644 7.92 69.66 16h-1.488V4.72H69.5l4.096 7.808L77.66 4.72Zm7.15 11.392c-.768 0-1.445-.165-2.032-.496a3.423 3.423 0 0 1-1.344-1.408c-.31-.619-.464-1.333-.464-2.144 0-.821.155-1.536.464-2.144a3.4 3.4 0 0 1 1.344-1.424C83.364 8.166 84.04 8 84.809 8s1.44.165 2.016.496c.587.33 1.034.805 1.344 1.424.32.608.48 1.323.48 2.144 0 .81-.16 1.525-.48 2.144a3.295 3.295 0 0 1-1.344 1.408c-.576.33-1.248.496-2.016.496Zm0-1.28c.715 0 1.258-.235 1.632-.704.384-.47.576-1.157.576-2.064 0-.896-.192-1.579-.576-2.048-.384-.48-.928-.72-1.632-.72-.704 0-1.248.24-1.632.72-.384.47-.576 1.152-.576 2.048 0 .907.186 1.595.56 2.064.384.47.933.704 1.648.704ZM97.649 4.72V16h-1.6v-1.344c-.236.47-.577.832-1.025 1.088-.448.245-.965.368-1.552.368-.672 0-1.274-.17-1.808-.512-.523-.341-.933-.821-1.232-1.44-.288-.619-.432-1.328-.432-2.128 0-.81.144-1.52.432-2.128.299-.608.71-1.077 1.232-1.408.523-.33 1.126-.496 1.808-.496.587 0 1.099.128 1.536.384.448.245.79.597 1.024 1.056V4.72h1.616Zm-3.793 10.112c.704 0 1.243-.24 1.616-.72.384-.48.576-1.163.576-2.048s-.192-1.568-.576-2.048c-.373-.48-.912-.72-1.616-.72-.704 0-1.253.24-1.648.72-.384.47-.576 1.141-.576 2.016s.197 1.563.592 2.064c.395.49.939.736 1.632.736Zm12.733-2.464h-5.52c.118 1.653.939 2.48 2.464 2.48.896 0 1.707-.293 2.432-.88l.496 1.136c-.362.31-.81.555-1.344.736a5.035 5.035 0 0 1-1.632.272c-1.248 0-2.234-.357-2.96-1.072-.714-.715-1.072-1.701-1.072-2.96 0-.8.155-1.51.464-2.128a3.54 3.54 0 0 1 1.328-1.44c.576-.341 1.227-.512 1.952-.512 1.056 0 1.883.341 2.48 1.024.608.683.912 1.627.912 2.832v.512Zm-3.36-3.184c-.618 0-1.114.197-1.488.592-.362.384-.581.939-.656 1.664h4.112c-.032-.725-.218-1.28-.56-1.664-.33-.395-.8-.592-1.408-.592Z" fill="#111517"/><path fill-rule="evenodd" clip-rule="evenodd" d="M13.553 13.815c-3.884 0-7.034-2.887-7.034-6.447 0-1.343.448-2.586 1.212-3.618-3.04.945-5.231 3.581-5.231 6.688 0 3.9 3.45 7.062 7.704 7.062 3.389 0 6.266-2.007 7.296-4.796a7.458 7.458 0 0 1-3.947 1.111Z" fill="#fff" stroke="#111517" stroke-width="1.25"/></svg>